<?xml version='1.0' encoding='utf-8'?>
<svg xmlns="http://www.w3.org/2000/svg" version="1.1" id="Layer_1" x="0px" y="0px" viewBox="0 0 5042.966 2141.101" enable-background="new 0 0 5042.966 2141.101"> <g> <path fill="none" stroke="#000000" stroke-width="20" stroke-linecap="round" stroke-linejoin="round" stroke-miterlimit="10" d=" M2553.135,701.479c-14.851-67.954-35.041-148.261,5.79-209.599c18.154-27.272,44.6-45.526,73.708-60.193 c-6.6,42.158-1.005,87.353,15.095,126.615c28.182,68.726,86.957,120.689,159.406,137.529 C2722.467,699.53,2637.801,701.408,2553.135,701.479z M3087.879,1113.503c-43.363,0-82.15-19.57-108.03-50.353V881.69 c25.88-30.783,64.667-50.353,108.03-50.353c77.918,0,141.083,63.165,141.083,141.083S3165.797,1113.503,3087.879,1113.503z"/> <path fill="none" stroke="#000000" stroke-width="20" stroke-linecap="round" stroke-linejoin="round" stroke-miterlimit="10" d=" M21.483,1551.105h252.813l44.972-162.87l105.744,702.528l91.158-1119.425l63.203,687.942l64.419-105.744l461.869,0h259.306 l46.127-167.053l108.46,720.572l93.5-1148.178l64.827,705.612l66.073-108.46l473.732,0c-30.197,0-59.173-11.917-80.632-33.162 l-53.444-52.91c-10.288-10.186-3.075-27.723,11.402-27.723h334.295c-174.404-13.689-312.873-160.678-312.873-338.442V743.484 c0-29.713,24.311-54.024,54.024-54.024c49.978,3.184,99.956,5.724,149.934,7.643c28.648-35.337,36.085-83.141,15.4-124.542 c-12.965-25.949-41.924-48.063-60.395-72.053c-9.975-12.956-17.842-26.948-23.858-42.137 c-14.624-36.921-14.299-79.324-0.412-116.361c14.396-38.394,41.94-69.25,61.147-105.023c11.673-22.987,21.779-48.323,16.138-74.52 c-5-23.222-20.877-44.125-44.35-50.532c27.101-2.405,50.516,17.172,62.239,40.203c11.647,22.883,11.982,49.119,6.327,73.773 c-11.603,50.585-47.482,90.629-61.821,140.061c-9.122,30.29-3.554,71.516,13.004,98.688c20.446,33.791,51.937,61.123,64.573,99.391 c15.737,47.659-1.747,105.82-44.439,133.186c75.718,2.862,151.436,4.284,227.153,4.246 c-34.648-69.986-63.333-154.748-23.171-228.565c25.938-47.674,70.621-73.31,117.674-95.222c1.441-5.566,2.735-11.167,3.658-16.844 c0.668-4.109,1.075-8.225,1.213-12.383c0.01-0.284,0.021-1.13,0.035-1.459c-2.587-59.646-56.795-96.257-101.731-126.508 c-34.454-23.195-69.92-47.547-92.336-83.417c-18.882-30.712-28.824-68.806-13.578-103.04 c-6.45,48.996,25.626,91.452,63.846,118.279c34.56,24.258,73.961,40.579,108.784,64.453c34.023,26.314,63.477,54.811,76.414,97.191 c4.14,13.562,5.082,27.283,4.037,40.948c10.608-4.904,21.038-9.951,31.097-15.357c5.368-2.885,12.841-7.155,17.117-9.926 c25.298-16.66,49.03-37.648,60.708-66.332c13.672-33.583,4.139-70.103-15.391-99.269 c-37.382-55.825-104.444-78.933-163.562-103.928c81.44,11.53,171.506,35.879,211.383,115.652 c18.448,36.907,19.931,79.249,1.974,116.523c-20.767,43.108-60.081,72.879-102.042,93.742 c-16.669,8.288-34.78,15.559-53.092,23.009c-7.772,27.922-12.839,55.791-11.01,85.244c1.778,28.64,8.45,60.843,21.941,85.868 c25.753,50.812,65.244,88.818,115.168,115.549c38.531-1.703,77.062-3.778,115.593-6.232c29.713,0,54.024,24.311,54.024,54.024 v52.468c31.444-19.291,68.436-30.421,108.03-30.421c114.262,0,206.889,92.627,206.889,206.889s-92.627,206.889-206.889,206.889 c-40.767,0-78.775-11.798-110.81-32.156c-20.352,157.844-150.211,282.615-310.304,295.082h334.506 c14.477,0,21.69,17.537,11.402,27.723l-53.444,52.91c-21.277,21.064-49.943,32.958-79.862,33.159 c-0.257,0.002-0.513,0.003-0.77,0.003l465.006,1.247l61.086,110.953l68.566-690.652l91.007,1118.258l108.46-703.119l44.88,159.573 h231.88l465.491,1.248l61.15,111.069l68.638-691.373l91.102,1119.425l108.573-703.853l44.927,159.74h232.122"/> </g> </svg>